<svg width="60px" height="60px" viewBox="0 0 60 60" version="1.1">
    <defs></defs>
    <g id="filled" stroke="none" stroke-width="1" fill="#FFFFFF" fill-rule="evenodd">
        <g id="Tech_sliced" transform="translate(-840.000000, 0.000000)"></g>
        <g id="Tech" transform="translate(-838.000000, 7.000000)" stroke-linecap="round" stroke="#535353" stroke-width="2">
            <g id="Browsercode" transform="translate(840.000000, 0.000000)">
                <rect id="Rectangle-435" x="0" y="8" width="56" height="38"></rect>
                <rect id="Rectangle-436" fill="#FFFFFF" x="0" y="0" width="56" height="8"></rect>
                <circle id="Oval-475" cx="4" cy="4" r="1"></circle>
                <circle id="Oval-476" cx="9" cy="4" r="1"></circle>
                <circle id="Oval-477" cx="14" cy="4" r="1"></circle>
                <rect id="Rectangle-459" x="7" y="14" width="8" height="11" rx="2"></rect>
                <rect id="Rectangle-459" x="29.0018986" y="14" width="8" height="11" rx="2"></rect>
                <rect id="Rectangle-459" x="36.0037973" y="29.992017" width="8" height="11" rx="2"></rect>
                <rect id="Rectangle-459" x="7" y="29.992017" width="8" height="11" rx="2"></rect>
                <path d="M21.0018986,14 C22.1054196,14 23,14.9001762 23,15.992017 L23,25.007983" id="Rectangle-459"></path>
                <path d="M28.0037973,29.992017 C29.1073182,29.992017 30.0018986,30.8921932 30.0018986,31.984034 L30.0018986,41" id="Rectangle-459"></path>
                <path d="M21.0018986,29.992017 C22.1054196,29.992017 23,30.8921932 23,31.984034 L23,41" id="Rectangle-459"></path>
                <path d="M43.0037973,14 C44.1073182,14 45.0018986,14.9001762 45.0018986,15.992017 L45.0018986,25.007983" id="Rectangle-459"></path>
            </g>
        </g>
    </g>
</svg>